<?xml version="1.0" standalone="no"?>
<!DOCTYPE svg PUBLIC "-//W3C//DTD SVG 20010904//EN"
 "http://www.w3.org/TR/2001/REC-SVG-20010904/DTD/svg10.dtd">
<svg version="1.0" xmlns="http://www.w3.org/2000/svg"
 width="600.000000pt" height="600.000000pt" viewBox="0 0 600.000000 600.000000"
 preserveAspectRatio="xMidYMid meet">
<metadata>
Created by potrace 1.16, written by Peter Selinger 2001-2019
</metadata>
<g transform="translate(0.000000,600.000000) scale(0.100000,-0.100000)"
fill="#000000" stroke="none">
<path d="M0 3000 l0 -3000 3000 0 3000 0 0 3000 0 3000 -3000 0 -3000 0 0
-3000z m3209 2515 c55 -8 121 -22 148 -31 114 -38 325 -170 408 -255 l50 -51
-109 76 c-181 126 -369 186 -659 212 -68 6 -69 6 -63 32 l6 27 -14 -26 c-14
-24 -22 -26 -135 -36 -130 -13 -287 -58 -437 -128 -42 -19 -79 -35 -81 -35 -2
0 11 13 29 29 38 33 113 73 121 65 3 -4 50 12 104 34 84 35 239 80 323 95 58
10 217 6 309 -8z m-262 -187 c-3 -43 -2 -61 3 -43 4 17 8 49 9 73 l1 42 83 0
c199 0 485 -80 654 -182 72 -44 209 -180 260 -259 49 -75 65 -134 59 -227 -3
-49 -2 -56 4 -27 7 37 7 36 8 -22 2 -42 7 -67 18 -78 12 -11 18 -39 20 -88 2
-48 1 -64 -5 -47 l-8 25 -4 -28 c-7 -49 -24 -29 -29 35 l-5 63 -9 -85 c-4 -47
-6 -97 -3 -110 3 -18 5 -15 6 13 1 31 4 37 24 37 16 0 19 -2 8 -9 -24 -15 -8
-145 27 -228 l30 -71 -5 -160 c-5 -140 -4 -163 11 -177 9 -9 16 -20 16 -24 0
-21 -50 -78 -91 -103 -52 -33 -216 -76 -399 -107 -158 -27 -611 -42 -993 -34
l-268 6 -14 26 c-14 26 -14 26 -15 3 0 -40 -24 -19 -41 39 -11 35 -17 45 -18
30 -2 -38 -19 -12 -24 34 l-4 40 -1 -43 c-1 -26 6 -58 18 -82 17 -33 18 -40 5
-40 -25 0 -45 55 -46 127 -1 81 -17 59 -19 -27 -2 -54 -2 -54 -13 -22 -6 20
-15 31 -23 28 -7 -3 -15 4 -17 17 -4 20 -4 20 -6 -3 0 -14 8 -40 19 -58 23
-37 24 -42 10 -42 -17 0 -50 81 -50 125 0 30 -3 36 -10 25 -5 -8 -10 -30 -10
-49 0 -52 -14 -27 -20 37 l-6 57 -11 -39 c-10 -32 -9 -46 7 -88 18 -48 18 -49
0 -33 -20 18 -40 86 -40 136 0 40 -11 31 -21 -18 -7 -34 -8 -32 -5 15 2 36 11
63 26 83 21 30 21 30 1 20 -52 -28 -70 -147 -30 -202 11 -16 16 -29 10 -29
-14 0 -40 40 -51 80 -12 41 1 103 30 142 30 41 8 35 -30 -9 -31 -34 -32 -39
-28 -105 2 -37 2 -68 1 -68 -1 0 -9 13 -18 30 -29 55 -16 135 29 189 l21 25
-32 -22 c-36 -25 -43 -42 -53 -122 l-7 -55 -12 30 c-7 17 -11 51 -8 79 4 42
10 55 45 88 23 21 36 38 29 38 -26 0 -60 -35 -83 -84 -21 -46 -23 -48 -23 -22
-1 36 42 102 79 121 23 12 27 11 38 -5 7 -12 8 -21 2 -25 -6 -3 -10 -11 -10
-16 0 -6 10 -3 22 5 44 31 65 12 31 -28 -17 -18 -15 -18 14 2 36 26 63 28 63
7 0 -13 7 -15 36 -9 l35 6 -20 -33 c-30 -49 -26 -66 6 -27 15 18 34 37 42 42
10 6 0 15 -40 31 -30 12 -53 27 -52 34 2 6 -10 11 -27 11 -35 0 -40 17 -7 24
12 3 31 7 42 10 11 2 -17 4 -63 3 -45 0 -86 3 -91 9 -23 24 -12 152 15 175 22
18 9 222 -19 312 -20 65 -20 70 -4 120 9 29 18 79 21 113 10 114 99 319 180
414 151 177 463 301 775 309 l54 1 -6 -72z m-1022 -1708 c3 -6 1 -10 -4 -10
-6 0 -11 5 -11 12 0 6 -3 9 -6 5 -3 -3 -3 -19 1 -37 8 -36 36 -52 169 -99 119
-42 318 -67 661 -82 391 -17 729 3 1015 60 175 35 233 44 205 31 -11 -5 -30
-9 -42 -9 -25 -1 -31 -16 -10 -24 7 -4 6 -6 -5 -6 -9 -1 -24 -4 -34 -8 -12 -4
-15 -3 -10 5 9 15 8 15 -94 -3 -47 -9 -152 -25 -235 -36 -287 -40 -986 -36
-1273 7 -122 18 -126 16 -117 -61 8 -68 -10 -47 -22 25 l-9 55 -18 -28 c-22
-32 -31 -100 -22 -152 10 -51 58 -101 119 -123 87 -33 105 -34 41 -4 -36 18
-70 42 -84 62 l-24 33 30 -21 c16 -11 45 -23 64 -26 31 -6 33 -5 16 6 -11 7
-36 28 -55 46 l-36 33 35 -21 c45 -26 60 -26 32 0 -28 26 -28 34 -1 19 84 -44
241 -78 469 -99 63 -6 133 -13 155 -16 22 -4 38 -4 35 -1 -3 3 -62 15 -130 27
-324 55 -490 97 -490 123 0 5 20 7 48 3 l47 -5 -50 23 -50 24 45 4 45 3 -30
17 -30 17 33 1 c18 0 63 -5 100 -10 37 -6 126 -17 197 -24 72 -8 115 -14 98
-15 -40 -1 -43 -16 -5 -25 47 -12 375 -19 537 -11 140 6 179 15 120 27 -11 2
30 7 90 11 61 4 159 19 219 33 85 21 113 24 132 15 13 -6 24 -15 24 -21 0 -19
-49 -89 -71 -100 -35 -19 -15 -21 36 -4 44 16 49 21 77 82 20 44 32 61 38 52
4 -7 13 -9 19 -6 7 5 11 -4 11 -26 l1 -33 14 25 c14 24 14 22 15 -35 0 -81
-21 -112 -112 -167 -93 -57 -111 -62 -288 -92 -221 -38 -413 -50 -680 -43
-207 5 -260 10 -445 42 -304 51 -371 88 -382 213 -4 47 -1 67 21 116 14 32 26
62 26 66 0 4 -21 15 -47 25 -126 47 -163 79 -163 139 0 23 2 25 19 16 11 -5
23 -15 26 -20z m2126 -297 c8 -10 23 -34 33 -53 11 -19 43 -65 72 -102 30 -39
54 -82 58 -103 4 -20 20 -58 36 -83 15 -26 44 -94 64 -152 38 -113 53 -215 61
-420 3 -63 8 -129 11 -147 6 -32 5 -33 -27 -33 l-34 0 2 48 3 47 -15 -47 -16
-48 -169 0 c-148 0 -274 9 -347 25 -16 4 -23 13 -23 30 0 21 5 25 33 25 l32 1
-27 22 c-30 25 -34 37 -17 54 8 8 21 5 46 -13 48 -32 92 -39 134 -21 l34 15
-61 1 c-46 1 -68 6 -85 21 -20 16 -22 21 -10 29 12 8 12 12 2 25 -15 17 -7 36
15 36 8 0 13 4 10 9 -4 5 21 11 54 13 58 3 71 -4 53 -28 -5 -5 4 3 19 18 28
28 148 94 148 81 0 -5 -7 -33 -15 -63 -12 -46 -12 -52 0 -37 7 11 19 41 26 68
11 41 22 56 75 99 35 27 72 50 84 50 23 0 24 5 9 66 -8 32 -16 44 -30 44 -11
0 -19 7 -19 15 0 17 -47 125 -54 125 -5 0 39 -124 50 -142 3 -4 -15 -17 -38
-29 -24 -12 -49 -29 -56 -38 -11 -13 -12 -6 -7 44 3 33 8 74 11 90 l5 30 -15
-24 c-13 -23 -14 -23 -18 -5 -2 10 -14 -26 -26 -81 -12 -55 -26 -106 -31 -113
-10 -16 -161 -64 -161 -51 0 5 16 51 35 102 35 90 64 131 88 121 7 -2 21 12
32 32 10 19 37 49 58 67 36 28 75 92 64 104 -3 2 -15 -12 -27 -31 -12 -20 -43
-53 -68 -73 -26 -20 -82 -70 -124 -112 l-77 -75 4 47 c3 41 1 47 -16 47 -23 0
-23 5 -4 59 20 56 11 51 -21 -11 -15 -29 -28 -54 -29 -56 -3 -3 -43 15 -53 23
-2 2 3 14 12 27 19 29 48 98 41 98 -2 0 -16 -21 -29 -47 -41 -77 -38 -75 -79
-58 -22 9 -37 22 -37 33 -1 16 -1 16 -11 0 -5 -10 -21 -18 -34 -18 -13 0 -35
-4 -49 -10 -32 -12 -32 -7 -4 39 31 53 58 80 106 108 34 20 45 23 57 13 8 -7
15 -22 15 -33 0 -19 2 -19 28 7 26 24 30 25 42 11 11 -14 20 -3 64 76 50 90
77 121 93 106 4 -5 0 -29 -9 -55 -17 -49 -34 -131 -25 -122 2 3 19 40 37 83
17 42 37 77 44 77 17 0 46 -53 55 -102 l9 -43 1 43 c1 43 8 51 29 30 7 -7 12
-8 12 -2 0 6 -11 21 -25 34 -15 14 -41 47 -60 75 -19 29 -41 57 -49 64 -20 16
-21 41 -3 41 8 0 20 -8 28 -17z m-2017 -307 c37 -136 43 -141 39 -34 -3 84 -2
90 10 63 11 -24 14 -26 20 -12 14 36 53 20 92 -38 21 -30 42 -55 47 -55 4 0 8
20 8 45 l0 45 25 -16 c39 -26 68 -79 60 -113 -8 -38 -26 -44 -70 -25 -20 8
-45 12 -55 9 -15 -5 -24 3 -40 35 -26 50 -36 48 -15 -3 18 -45 19 -57 2 -57
-8 0 -35 -14 -61 -32 l-48 -31 -41 48 c-75 87 -147 190 -147 208 0 11 -5 15
-11 11 -6 -3 -15 0 -20 7 -16 26 -8 64 21 99 17 19 30 29 30 23 0 -7 -4 -15
-10 -18 -5 -3 -10 -11 -10 -17 0 -7 5 -7 14 1 11 9 20 1 46 -39 18 -27 34 -50
36 -50 2 0 -3 17 -12 38 -34 80 -35 85 -22 94 13 7 18 9 37 12 5 0 13 5 17 9
5 5 14 -18 20 -50 6 -32 23 -103 38 -157z m1522 -53 c-3 -10 -8 -35 -12 -56
-3 -20 -9 -39 -13 -41 -3 -2 -53 0 -111 6 -126 11 -171 14 -230 17 l-45 3 40
18 c22 10 55 21 73 25 30 6 32 5 32 -19 0 -30 3 -31 33 -12 12 8 59 24 105 35
46 11 91 25 100 30 25 15 34 13 28 -6z m-1662 -55 c19 -35 69 -98 111 -141 41
-43 75 -80 75 -83 0 -10 -57 10 -90 31 -19 13 -46 26 -58 30 -15 4 -32 23 -44
48 l-19 42 5 -38 c6 -44 -13 -47 -25 -4 -15 55 -15 177 0 177 5 0 25 -28 45
-62z m-144 -50 c-17 -71 -136 -507 -160 -586 -11 -35 -20 -90 -19 -121 l1 -56
15 55 c24 88 24 88 36 62 7 -16 17 -22 29 -19 13 4 23 -3 33 -23 22 -43 36
-46 19 -4 -18 42 -28 42 101 5 92 -26 339 -30 385 -6 l30 16 0 -39 c0 -22 -3
-61 -7 -88 l-8 -49 -5 55 -5 55 -16 -79 c-14 -78 -15 -80 -49 -89 -19 -5 -89
-7 -155 -4 -113 4 -130 8 -280 59 l-160 54 3 34 c5 55 150 635 184 738 33 100
48 116 28 30z m810 -158 c-13 -144 -19 -170 -35 -170 -22 0 -34 30 -59 156
-17 81 -20 117 -12 119 18 7 100 10 108 5 4 -3 3 -52 -2 -110z m129 53 c6 -38
17 -111 26 -163 9 -62 13 -74 10 -35 -3 33 -8 104 -12 158 l-6 98 84 -3 84 -3
84 -165 c46 -91 85 -167 88 -170 9 -10 -72 266 -92 314 -8 18 -5 19 50 13 32
-3 62 -12 66 -19 7 -10 9 -10 9 1 0 11 12 12 63 6 34 -4 134 -10 222 -14 l160
-6 -3 -50 c-3 -47 -39 -203 -80 -344 l-18 -65 -110 3 c-120 2 -288 17 -366 31
-27 6 -126 13 -219 16 -112 5 -169 11 -169 18 0 6 16 61 35 121 28 85 37 134
42 218 5 93 8 107 24 107 14 0 19 -14 28 -67z m-254 -85 c5 -106 11 -140 26
-165 15 -23 19 -45 17 -80 l-4 -48 -8 42 c-5 24 -15 51 -23 60 -12 16 -13 10
-8 -48 4 -46 3 -69 -5 -74 -6 -4 -35 -4 -64 -1 -43 6 -55 12 -64 31 -14 30 -2
38 33 25 26 -10 25 -8 -13 37 -63 77 -96 153 -105 246 -5 47 -4 49 27 62 17 7
34 11 38 9 5 -3 8 -41 8 -84 0 -79 16 -180 28 -180 4 0 8 28 8 61 2 85 25 223
38 231 6 4 23 8 37 8 l26 0 8 -132z m1219 67 c9 -55 26 -58 55 -10 20 35 43
43 70 26 11 -7 3 -30 -43 -116 -31 -58 -56 -109 -56 -113 0 -3 31 42 70 101
88 136 117 144 100 28 -7 -49 -19 -78 -53 -130 -60 -90 -65 -100 -73 -160 -6
-49 -8 -51 -25 -35 -20 18 -72 13 -121 -12 -33 -17 -128 -19 -128 -3 0 7 18
64 39 128 21 64 47 163 56 221 10 58 23 108 29 112 6 4 25 8 42 8 30 0 32 -3
38 -45z m-1920 -120 c-13 -119 -14 -163 -5 -223 6 -41 10 -77 7 -79 -2 -2 -16
2 -31 9 -23 10 -26 16 -21 42 3 17 8 56 11 86 l6 55 -30 -85 c-16 -47 -30 -76
-31 -65 -1 20 103 416 108 411 1 -2 -5 -70 -14 -151z m119 76 c21 -22 47 -43
59 -47 11 -3 32 -18 45 -33 16 -18 21 -20 17 -8 -6 18 -5 18 32 1 22 -9 68
-25 104 -34 54 -15 66 -22 73 -45 7 -20 5 -31 -7 -43 -14 -15 -23 -14 -103 4
-49 12 -97 24 -108 28 -11 4 -2 -4 20 -18 67 -44 161 -60 207 -35 11 6 22 9
24 6 4 -3 -25 -124 -41 -172 -7 -20 -7 -20 10 0 13 17 17 18 25 5 6 -10 3 -18
-10 -27 -25 -18 -360 -12 -409 7 l-34 13 6 131 c3 72 9 142 15 156 10 24 10
24 17 -12 4 -21 10 -61 14 -90 l6 -53 14 85 c13 83 12 87 -13 153 -30 79 -19
87 37 28z m557 -449 c0 -17 -39 -88 -57 -103 -10 -9 -31 -23 -48 -32 l-30 -15
25 -6 c72 -16 85 -11 121 45 28 44 34 49 40 33 5 -13 8 -6 8 22 1 55 18 68 68
55 34 -9 476 -49 745 -66 l98 -7 -6 -26 c-4 -25 -4 -24 9 4 18 38 50 46 168
43 57 -1 82 -6 86 -15 7 -18 33 -18 33 -1 0 7 7 22 16 33 14 18 15 14 10 -46
-8 -107 -22 -123 -57 -67 -11 17 -18 23 -15 12 17 -63 45 -197 49 -238 6 -57
0 -62 -108 -102 -66 -25 -78 -27 -207 -23 -76 2 -140 7 -144 10 -3 4 -1 17 6
30 11 22 10 22 -4 4 -9 -11 -16 -23 -16 -28 0 -4 -18 -8 -40 -8 -22 0 -40 2
-40 5 0 3 18 49 40 102 22 53 39 98 37 100 -2 2 -26 -44 -53 -102 l-48 -106
-146 6 c-80 3 -173 8 -208 11 -57 5 -62 8 -67 32 -3 15 -17 48 -30 75 -14 26
-25 49 -25 51 0 3 17 -2 38 -10 l37 -15 -30 23 c-65 50 -78 66 -91 113 l-14
50 3 -52 2 -52 -29 27 c-30 27 -30 27 -13 2 9 -14 29 -45 43 -70 15 -25 39
-63 54 -85 15 -22 30 -50 34 -61 6 -20 4 -21 -36 -13 -24 4 -56 12 -71 18 -16
6 -59 18 -96 27 -55 12 -70 20 -80 40 -26 59 -2 74 30 19 12 -19 22 -35 24
-35 2 0 -8 35 -22 78 -14 45 -22 89 -19 105 6 29 -3 33 -39 17 -17 -7 -17 -9
-2 -9 28 -1 20 -34 -15 -63 l-33 -26 21 -50 c20 -46 20 -49 3 -45 -20 6 -47
106 -56 211 -5 53 -3 62 11 62 20 0 21 38 1 64 -25 32 -3 39 63 20 18 -5 22
-2 22 15 0 16 6 21 25 21 14 0 25 -4 25 -8z m1470 -116 c30 -8 66 -17 79 -22
17 -5 22 -4 17 4 -5 9 30 12 134 12 131 0 142 -1 135 -17 -17 -42 -16 -46 4
-18 18 26 28 31 81 35 67 6 70 2 49 -59 -19 -55 -2 -45 19 10 l19 53 12 -54
c7 -30 14 -80 18 -111 6 -56 5 -56 -23 -62 -42 -8 -574 -1 -606 8 -22 6 -28
14 -31 44 l-3 36 -9 -35 c-7 -29 -9 -31 -16 -15 -4 11 -8 38 -8 60 -2 52 -21
27 -21 -27 0 -26 -5 -38 -14 -38 -11 0 -12 8 -5 38 5 20 9 56 9 80 0 51 12 53
78 15 l47 -27 -47 43 c-27 24 -48 51 -48 60 0 20 1 20 130 -13z m-1743 -303
l-6 -88 19 65 20 65 -5 -60 c-10 -118 -28 -235 -35 -235 -4 0 -11 21 -15 46
-10 71 -26 100 -19 35 5 -40 3 -52 -6 -46 -8 5 -9 2 -1 -11 15 -29 59 -474 91
-924 11 -156 19 -200 21 -119 1 32 5 18 14 -48 16 -117 19 -129 55 -206 33
-71 34 -77 22 -77 -5 0 -22 30 -37 67 -15 38 -32 72 -37 78 -7 8 17 -84 29
-110 9 -20 -50 51 -78 94 -39 60 -37 36 6 -56 l35 -76 -67 7 c-36 4 -70 9 -74
12 -13 8 -89 214 -124 337 -74 258 -137 550 -155 722 -11 94 -22 182 -25 196
-6 24 -3 28 32 38 l38 10 -37 -5 c-44 -6 -44 -7 -26 99 10 60 13 67 18 42 5
-22 11 3 25 93 11 67 22 122 26 122 4 0 12 -7 19 -15 16 -20 90 -19 138 1 34
14 97 30 131 33 11 1 13 -15 8 -86z m1928 38 c3 -5 -7 -12 -22 -14 -16 -2 16
-5 70 -6 57 0 97 -5 97 -11 0 -5 -5 -10 -10 -10 -6 0 -1 -13 11 -29 14 -19 25
-53 29 -93 l7 -63 2 90 c1 61 4 85 11 75 12 -20 13 -558 0 -725 -8 -104 -22
-177 -69 -365 -33 -129 -67 -264 -76 -300 -42 -163 -37 -153 -85 -178 -31 -15
-62 -22 -102 -22 l-57 0 18 43 c20 48 44 137 38 143 -2 3 -14 -22 -26 -53 -11
-32 -30 -69 -41 -83 -19 -25 -19 -25 0 38 28 88 24 98 -10 27 -40 -84 -37 -53
5 52 30 77 39 122 70 351 23 172 35 298 34 365 l-2 102 -21 -160 c-18 -137
-21 -151 -24 -100 -1 33 4 148 12 255 8 107 13 196 11 198 -2 2 -10 -25 -18
-60 l-16 -63 2 100 c1 55 -3 114 -9 130 -31 83 -54 219 -44 260 6 25 8 20 9
-25 1 -59 21 -145 40 -176 11 -18 12 -18 7 1 -25 93 -35 248 -17 259 4 3 11
-36 14 -87 2 -50 10 -103 16 -117 9 -20 10 -4 6 78 -5 104 0 152 16 152 5 0 9
-12 10 -27 1 -25 2 -24 11 9 5 20 17 39 26 41 31 8 71 7 77 -2z m-1781 -86
c43 -29 46 -30 46 -10 0 12 5 12 32 1 22 -10 39 -28 55 -62 13 -27 21 -41 18
-31 -21 77 -21 78 30 45 27 -18 35 -30 35 -54 0 -60 69 -299 70 -244 0 8 -9
62 -20 120 -22 116 -24 140 -11 140 4 0 11 -30 14 -67 3 -38 13 -89 22 -115
18 -52 81 -128 148 -180 34 -26 29 -18 -25 38 -59 63 -69 79 -92 154 -15 47
-29 105 -33 129 l-6 44 61 -7 c34 -4 94 -18 133 -31 58 -20 93 -25 171 -25 54
0 98 -2 98 -5 0 -3 -16 -38 -36 -78 -45 -88 -22 -74 26 17 32 60 38 66 68 66
17 0 32 -4 32 -9 0 -5 -21 -49 -46 -97 -25 -49 -37 -78 -25 -64 11 14 37 57
58 97 l38 72 72 3 c40 2 73 0 73 -3 0 -4 -20 -29 -43 -55 -64 -71 -74 -94 -51
-111 10 -7 31 -13 46 -13 l28 0 -32 29 -32 28 58 65 c54 62 60 66 110 71 50 5
77 14 160 58 58 31 53 17 -11 -28 -147 -104 -175 -175 -68 -172 l40 1 -33 8
c-43 10 -47 15 -35 42 18 39 275 170 294 150 4 -4 9 -18 12 -32 3 -17 5 -12 6
16 0 22 5 44 10 50 5 5 12 18 15 29 3 11 3 -7 0 -40 -5 -53 -25 -163 -40 -220
l-5 -20 16 20 c9 11 28 43 42 70 l26 50 9 -33 c11 -42 -6 -98 -34 -113 -18 -9
-18 -8 -9 10 25 46 6 26 -88 -92 -61 -75 -111 -128 -128 -135 -94 -36 -139
-44 -318 -54 -225 -12 -368 -6 -525 22 -63 11 -116 20 -116 20 -1 0 -34 56
-74 125 -39 69 -73 125 -75 125 -6 0 24 -69 66 -152 35 -70 37 -78 20 -78 -14
0 -32 23 -64 84 -60 112 -75 163 -86 280 -5 54 -12 101 -15 104 -3 3 -6 -33
-6 -80 0 -106 28 -219 76 -306 25 -46 30 -63 19 -58 -9 3 -34 9 -55 12 -33 5
-42 13 -64 53 -20 38 -34 50 -65 61 -45 15 -47 20 -55 140 -4 54 -2 76 3 60 6
-17 9 7 10 83 1 59 5 107 10 107 4 0 25 -11 45 -25z m11 -547 c12 -38 35 -88
49 -112 48 -82 145 -195 221 -257 41 -34 75 -65 75 -69 0 -8 -94 5 -171 25
-74 19 -72 20 -54 -15 8 -16 15 -35 15 -43 0 -22 61 -45 182 -68 62 -12 124
-29 138 -39 14 -9 55 -33 91 -54 58 -31 78 -37 150 -42 l84 -5 -53 22 c-29 11
-52 23 -50 25 2 2 57 8 123 14 102 10 127 9 189 -6 39 -9 75 -20 79 -24 11
-10 -15 -29 -80 -57 -55 -23 -56 -24 -18 -18 87 14 151 60 131 94 -4 5 3 12
14 16 11 3 27 14 36 22 26 26 287 193 312 199 32 9 35 2 18 -45 -12 -36 -12
-40 0 -30 8 7 19 31 25 55 6 24 15 44 19 44 14 0 21 -105 10 -135 -12 -33 -26
-45 -52 -45 -22 0 -23 23 -3 40 9 7 14 15 11 17 -4 5 -56 -28 -255 -159 -115
-76 -148 -93 -245 -123 -61 -18 -137 -39 -168 -45 -32 -6 -61 -16 -64 -22 -5
-7 -1 -9 9 -5 30 11 18 -1 -25 -27 -60 -36 -34 -32 53 8 41 19 130 50 198 70
128 38 202 71 259 113 17 13 36 22 41 19 5 -3 15 2 22 11 30 36 67 50 114 43
25 -4 48 -10 52 -13 3 -4 0 -46 -7 -94 -12 -80 -16 -91 -48 -120 -39 -36 -37
-41 8 -18 39 20 49 41 60 132 12 92 18 113 32 113 12 0 5 -179 -7 -212 -7 -18
-216 -116 -305 -143 -30 -9 -83 -25 -118 -36 -52 -16 -90 -19 -220 -18 -123 2
-143 3 -92 9 40 4 90 19 130 39 75 36 69 40 -16 11 -82 -28 -113 -23 -57 9 51
29 51 37 0 16 -63 -26 -299 -15 -423 20 -28 8 -102 44 -164 80 -141 82 -191
108 -197 101 -3 -2 15 -15 39 -27 23 -12 76 -44 116 -71 39 -27 116 -67 169
-90 106 -46 112 -60 13 -29 -35 11 -66 19 -67 17 -5 -4 123 -57 160 -67 18 -4
-24 -5 -93 -2 l-125 5 -116 60 c-117 60 -190 110 -177 123 3 4 28 -3 55 -14
50 -22 46 -15 -22 32 -14 10 -25 23 -25 29 0 9 12 8 67 -7 10 -3 -4 5 -31 18
-40 19 -52 31 -63 61 -14 41 -12 42 40 21 10 -4 6 5 -12 24 -58 62 -89 300
-41 308 8 2 33 -13 55 -33 l40 -35 -47 5 c-26 3 -49 2 -52 -2 -2 -4 21 -45 52
-92 92 -137 258 -261 449 -337 91 -36 113 -40 113 -19 0 9 18 16 53 21 l52 8
-55 12 c-30 6 -66 15 -79 19 -16 6 -21 5 -17 -3 9 -13 -33 -7 -124 19 -80 23
-146 66 -195 125 -20 25 -65 66 -101 91 -64 46 -88 84 -66 106 7 7 16 2 28
-16 19 -30 70 -61 78 -47 3 5 -12 45 -34 90 -22 45 -40 86 -40 91 0 21 -55 71
-92 82 -45 13 -65 37 -74 89 l-6 34 54 -56 c30 -31 65 -58 77 -62 22 -5 22 -5
-3 18 -13 12 -33 40 -44 61 -22 44 -66 198 -60 214 4 13 40 -57 63 -122 20
-57 76 -136 118 -166 42 -29 47 -19 11 21 -79 84 -128 171 -143 253 -13 71 15
52 44 -28z m1480 -68 c-30 -72 -57 -136 -61 -142 -18 -29 19 8 47 47 18 24 35
43 38 41 4 -3 6 -37 6 -77 0 -84 -2 -86 -111 -88 -57 -1 -67 -5 -142 -54 -44
-30 -107 -64 -141 -77 -34 -12 -60 -25 -57 -27 10 -11 115 32 177 72 75 48
128 69 154 59 13 -5 1 -12 -42 -25 -35 -11 -114 -54 -198 -109 -77 -49 -145
-90 -152 -90 -6 0 -34 29 -62 65 -28 36 -53 65 -56 65 -2 0 2 -21 10 -47 20
-66 19 -67 -17 -40 -50 37 -86 53 -163 70 -55 13 -76 23 -99 48 -27 30 -28 34
-12 43 53 32 53 35 -4 35 -30 -1 -77 -4 -105 -8 -48 -7 -49 -8 -20 -16 39 -10
55 -23 55 -45 0 -14 -11 -20 -42 -26 l-43 -7 70 -22 c39 -12 104 -38 145 -57
l75 -36 -50 -1 c-27 -1 -69 -6 -93 -11 -39 -9 -47 -7 -111 27 -66 36 -82 53
-135 142 -22 37 -11 36 32 -2 21 -19 32 -12 13 9 -5 5 -27 42 -50 83 l-41 73
27 -6 28 -6 -25 18 c-63 44 -104 79 -117 99 -15 22 -14 22 23 11 21 -5 44 -18
52 -27 7 -9 10 -10 7 -3 -5 10 -1 13 16 10 18 -2 32 -19 56 -68 38 -79 48 -90
76 -90 20 0 20 2 -7 18 -21 12 -34 33 -47 72 -10 30 -16 57 -14 59 3 2 23 -8
45 -23 50 -33 65 -34 25 -1 l-30 25 35 -6 c19 -3 71 -17 115 -30 44 -14 99
-28 123 -31 38 -5 192 8 412 36 36 5 67 7 69 5 6 -5 -65 -92 -133 -161 -33
-35 -58 -63 -56 -63 3 0 32 12 65 26 33 14 48 23 33 19 -16 -3 -28 -3 -28 1 0
3 19 27 43 54 23 26 67 79 97 118 33 42 67 75 84 82 16 5 31 9 32 7 2 -2 -11
-23 -28 -48 -26 -36 -17 -29 53 37 75 73 122 104 135 91 2 -2 -5 -34 -17 -71
-11 -38 -19 -70 -16 -72 5 -5 57 122 57 139 0 17 20 37 36 37 8 0 -7 -48 -41
-130z"/>
<path d="M2520 5192 c-190 -57 -278 -104 -381 -204 -47 -45 -98 -99 -111 -118
-41 -56 -52 -146 -46 -386 6 -225 19 -295 69 -366 l24 -33 -25 16 c-14 9 -38
40 -53 70 l-28 53 3 -79 c3 -79 3 -80 31 -83 32 -4 35 8 7 33 -33 30 -23 39
11 10 18 -14 38 -24 46 -21 8 3 26 -2 41 -12 30 -19 58 -20 402 -11 124 3 189
3 145 -1 -44 -4 -219 -11 -388 -15 l-308 -8 3 -31 3 -31 90 1 c50 0 243 4 430
9 239 6 450 4 710 -5 440 -15 703 -18 766 -7 54 9 65 27 73 109 4 42 4 46 -3
20 -14 -54 -21 -49 -22 19 -1 35 -3 53 -5 39 -2 -14 -9 -49 -15 -79 l-11 -54
-157 6 c-86 4 -185 8 -221 9 -49 1 -39 3 45 8 134 8 175 27 222 97 69 103 99
199 123 395 16 132 -9 257 -67 336 -78 104 -312 247 -488 296 -123 35 -354 56
-593 55 l-197 0 -125 -37z m845 -112 c54 -11 270 -91 335 -125 38 -19 140
-104 140 -116 0 -5 -23 9 -52 32 -70 55 -233 132 -343 163 -69 19 -144 29
-325 42 -129 9 -237 19 -240 21 -10 10 427 -5 485 -17z"/>
<path d="M2281 3862 c-21 -22 -47 -43 -58 -46 -22 -7 -61 -71 -50 -82 4 -4 7
-1 7 8 0 8 9 23 20 33 19 18 21 17 54 0 34 -18 34 -20 30 -69 l-4 -51 14 49
c8 27 22 56 32 65 16 15 16 14 9 -4 -4 -11 -8 -47 -10 -80 -4 -54 -3 -55 4
-15 4 25 15 59 24 75 l18 30 -6 -30 c-15 -81 -17 -119 -5 -161 14 -50 27 -59
65 -50 35 9 57 57 52 114 l-3 47 -2 -46 c-2 -34 -9 -53 -28 -74 -14 -15 -28
-25 -31 -22 -3 4 2 13 11 22 22 22 20 28 -4 15 -27 -14 -37 -7 -42 32 -7 47 9
101 29 94 11 -4 13 -2 9 9 -7 20 3 19 26 -2 18 -16 24 -8 10 13 -14 21 -77 48
-127 54 l-50 6 43 13 c37 10 51 10 90 -3 80 -27 100 -51 119 -139 17 -77 17
-77 -6 -108 l-23 -31 24 4 c17 2 25 12 32 41 5 20 15 37 23 37 17 0 17 -30 -2
-57 -13 -19 -13 -22 1 -27 24 -9 565 -6 774 4 102 5 235 18 296 29 148 26 341
78 381 103 42 25 73 65 73 92 -1 18 -3 17 -17 -9 -9 -16 -23 -36 -32 -43 -61
-49 -202 -90 -436 -128 -150 -24 -187 -25 -575 -29 -228 -1 -383 0 -345 4 l70
7 -66 2 -66 2 5 69 c4 58 1 77 -17 115 -42 85 -135 144 -243 154 -58 4 -59 4
-97 -36z"/>
<path d="M1811 1391 c-4 -125 152 -867 191 -906 7 -7 8 -3 5 10 -45 155 -115
473 -147 662 -43 248 -48 274 -49 234z"/>
<path d="M2091 1248 c-1 -133 14 -286 55 -581 13 -89 15 -40 5 80 -6 65 -20
233 -31 373 -12 140 -23 260 -25 265 -2 6 -4 -56 -4 -137z"/>
</g>
</svg>
